<?xml version="1.0" encoding="UTF-8" standalone="no"?>
<svg
   xmlns:dc="http://purl.org/dc/elements/1.1/"
   xmlns:cc="http://creativecommons.org/ns#"
   xmlns:rdf="http://www.w3.org/1999/02/22-rdf-syntax-ns#"
   xmlns:svg="http://www.w3.org/2000/svg"
   xmlns="http://www.w3.org/2000/svg"
   xmlns:sodipodi="http://sodipodi.sourceforge.net/DTD/sodipodi-0.dtd"
   xmlns:inkscape="http://www.inkscape.org/namespaces/inkscape"
   version="1.1"
   id="svg2"
   viewBox="0 0 366.73828 202.5"
   height="57.150002mm"
   width="103.50169mm"
   sodipodi:docname="hackingIsCool.svg"
   inkscape:version="0.91 r13725">
  <sodipodi:namedview
     pagecolor="#ffffff"
     bordercolor="#ffffff"
     borderopacity="1"
     objecttolerance="10"
     gridtolerance="10"
     guidetolerance="10"
     inkscape:window-width="1280"
     inkscape:window-height="755"
     id="namedview3394"
     showgrid="false"
     inkscape:zoom="2.08"
     inkscape:cx="182.88837"
     inkscape:cy="101.25001"
     inkscape:window-x="0"
     inkscape:window-y="116"
     inkscape:window-maximized="1"
     inkscape:current-layer="layer1" />
  <defs
     id="defs4" />
  <metadata
     id="metadata7">
    <rdf:RDF>
      <cc:Work
         rdf:about="">
        <dc:format>image/svg+xml</dc:format>
        <dc:type
           rdf:resource="http://purl.org/dc/dcmitype/StillImage" />
        <dc:title />
      </cc:Work>
    </rdf:RDF>
  </metadata>
  <g
     transform="translate(-104.28699,-13.790779)"
     id="layer1">
    <g
       style="font-style:normal;font-variant:normal;font-weight:normal;font-stretch:normal;font-size:90px;line-height:125%;font-family:SAINTCON;-inkscape-font-specification:SAINTCON;letter-spacing:0px;word-spacing:0px;fill:#000000;fill-opacity:1;stroke:none;stroke-width:1px;stroke-linecap:butt;stroke-linejoin:miter;stroke-opacity:1"
       id="text3336" />
    <g
       style="font-style:normal;font-weight:normal;font-size:90px;line-height:125%;font-family:sans-serif;letter-spacing:0px;word-spacing:0px;fill:#f90;fill-opacity:1;stroke:none;stroke-width:1px;stroke-linecap:butt;stroke-linejoin:miter;stroke-opacity:1;image-rendering:auto"
       id="text3340">
      <path
         d="m 164.28699,103.79078 -60,0 0,-90.000001 60,0 0,90.000001 z m -4.5,-85.500001 -23.1,0 0,25.5 -4.5,0 0,-25.5 -23.4,0 0,81 23.4,0 0,-25.5 4.5,0 0,25.5 23.1,0 0,-81 z"
         style="font-style:normal;font-variant:normal;font-weight:normal;font-stretch:normal;font-family:SAINTCON;-inkscape-font-specification:SAINTCON;text-align:center;text-anchor:middle;fill:#f90"
         id="path3398" />
      <path
         d="m 220.00964,13.790779 0,90.000001 -60,0 0,-90.000001 60,0 z m -4.5,4.5 -51,0 0,81 23.4,0 0,-40.5 4.5,0 0,40.5 23.1,0 0,-81 z m -23.1,28.5 -4.5,0 0,-15 4.5,0 0,15 z"
         style="font-style:normal;font-variant:normal;font-weight:normal;font-stretch:normal;font-family:SAINTCON;-inkscape-font-specification:SAINTCON;text-align:center;text-anchor:middle;fill:#f90"
         id="path3400" />
      <path
         d="m 275.7323,13.790779 0,90.000001 -60,0 0,-90.000001 60,0 z m -27.6,34.8 0,7.8 23.1,0 0,-38.1 -51,0 0,81 51,0 0,-38.4 -23.1,0 0,8.1 -4.5,0 0,-20.4 4.5,0 z"
         style="font-style:normal;font-variant:normal;font-weight:normal;font-stretch:normal;font-family:SAINTCON;-inkscape-font-specification:SAINTCON;text-align:center;text-anchor:middle;fill:#f90"
         id="path3402" />
      <path
         d="m 331.45496,13.790779 0,37.5 -7.5,7.5 7.5,7.5 0,37.500001 -22.5,0 -5.1,-7.500001 -0.3,7.500001 -32.1,0 0,-90.000001 32.1,0 0.3,7.5 5.1,-7.5 22.5,0 z m -24,10.2 -8.1,11.7 0,-17.4 -23.4,0 0,81 23.4,0 0,-17.4 8.1,11.7 3.9,5.7 15.6,0 0,-31.2 -6.3,-6 -3,-3.3 3,-3.3 6.3,-6 0,-31.2 -15.6,0 -3.9,5.7 z"
         style="font-style:normal;font-variant:normal;font-weight:normal;font-stretch:normal;font-family:SAINTCON;-inkscape-font-specification:SAINTCON;text-align:center;text-anchor:middle;fill:#f90"
         id="path3404" />
      <path
         d="m 359.57761,103.79078 -32.4,0 0,-90.000001 32.4,0 0,90.000001 z m -27.9,-85.500001 0,81 23.4,0 0,-81 -23.4,0 z"
         style="font-style:normal;font-variant:normal;font-weight:normal;font-stretch:normal;font-family:SAINTCON;-inkscape-font-specification:SAINTCON;text-align:center;text-anchor:middle;fill:#f90"
         id="path3406" />
      <path
         d="m 385.30261,24.890779 0,-11.1 30,0 0,90.000001 -22.5,0 -7.5,-11.400001 0,11.400001 -30,0 0,-90.000001 22.5,0 7.5,11.1 z m -25.5,-6.6 0,81 21,0 0,-21.6 8.1,12.3 6.3,9.3 15.6,0 0,-81 -21,0 0,21.6 -8.1,-12.3 -6.3,-9.3 -15.6,0 z"
         style="font-style:normal;font-variant:normal;font-weight:normal;font-stretch:normal;font-family:SAINTCON;-inkscape-font-specification:SAINTCON;text-align:center;text-anchor:middle;fill:#f90"
         id="path3408" />
      <path
         d="m 471.02527,13.790779 0,90.000001 -60,0 0,-90.000001 60,0 z m -32.1,60 0,-32.4 27.6,0 0,-23.1 -51,0 0,81 51,0 0,-53.4 -23.1,0 0,27.9 -4.5,0 z"
         style="font-style:normal;font-variant:normal;font-weight:normal;font-stretch:normal;font-family:SAINTCON;-inkscape-font-specification:SAINTCON;text-align:center;text-anchor:middle;fill:#f90"
         id="path3410" />
      <path
         d="m 150.22214,216.29077 -32.4,0 0,-90 32.4,0 0,90 z m -27.9,-85.5 0,81 23.4,0 0,-81 -23.4,0 z"
         style="font-style:normal;font-variant:normal;font-weight:normal;font-stretch:normal;font-family:SAINTCON;-inkscape-font-specification:SAINTCON;text-align:center;text-anchor:middle;fill:#f90"
         id="path3412" />
      <path
         d="m 205.94714,126.29077 0,90 -60,0 0,-90 60,0 z m -30,32.1 0,-4.5 25.5,0 0,-23.1 -51,0 0,53.1 25.5,0 0,4.5 -25.5,0 0,23.4 51,0 0,-53.4 -25.5,0 z"
         style="font-style:normal;font-variant:normal;font-weight:normal;font-stretch:normal;font-family:SAINTCON;-inkscape-font-specification:SAINTCON;text-align:center;text-anchor:middle;fill:#f90"
         id="path3414" />
      <path
         d="m 290.32214,126.29077 0,90 -60,0 0,-90 60,0 z m -27.6,34.8 0,7.8 23.1,0 0,-38.1 -51,0 0,81 51,0 0,-38.4 -23.1,0 0,8.1 -4.5,0 0,-20.4 4.5,0 z"
         style="font-style:normal;font-variant:normal;font-weight:normal;font-stretch:normal;font-family:SAINTCON;-inkscape-font-specification:SAINTCON;text-align:center;text-anchor:middle;fill:#f90"
         id="path3418" />
      <path
         d="m 346.0448,126.29077 0,90 -60,0 0,-90 60,0 z m -4.5,4.5 -51,0 0,81 51,0 0,-81 z m -23.1,55.5 -4.5,0 0,-30 4.5,0 0,30 z"
         style="font-style:normal;font-variant:normal;font-weight:normal;font-stretch:normal;font-family:SAINTCON;-inkscape-font-specification:SAINTCON;text-align:center;text-anchor:middle;fill:#f90"
         id="path3420" />
      <path
         d="m 401.76746,126.29077 0,90 -60,0 0,-90 60,0 z m -4.5,4.5 -51,0 0,81 51,0 0,-81 z m -23.1,55.5 -4.5,0 0,-30 4.5,0 0,30 z"
         style="font-style:normal;font-variant:normal;font-weight:normal;font-stretch:normal;font-family:SAINTCON;-inkscape-font-specification:SAINTCON;text-align:center;text-anchor:middle;fill:#f90"
         id="path3422" />
      <path
         d="m 429.59011,183.89077 27.9,0 0,32.4 -60,0 0,-90 32.1,0 0,57.6 z m -27.6,-53.1 0,81 51,0 0,-23.4 -27.9,0 0,-57.6 -23.1,0 z"
         style="font-style:normal;font-variant:normal;font-weight:normal;font-stretch:normal;font-family:SAINTCON;-inkscape-font-specification:SAINTCON;text-align:center;text-anchor:middle;fill:#f90"
         id="path3424" />
    </g>
    <g
       style="font-style:normal;font-weight:normal;font-size:90px;line-height:125%;font-family:sans-serif;letter-spacing:0px;word-spacing:0px;fill:#000000;fill-opacity:1;stroke:none;stroke-width:1px;stroke-linecap:butt;stroke-linejoin:miter;stroke-opacity:1"
       id="text3346" />
    <g
       style="font-style:normal;font-weight:normal;font-size:90px;line-height:125%;font-family:sans-serif;letter-spacing:0px;word-spacing:0px;fill:#000000;fill-opacity:1;stroke:none;stroke-width:1px;stroke-linecap:butt;stroke-linejoin:miter;stroke-opacity:1"
       id="text3350"
       transform="translate(0,26.923077)">
      <path
         d="m -325.4527,1086.7518 8.87696,0 0,27.7295 29.44335,-27.7295 11.42579,0 -32.56348,30.586 34.89258,35.0244 -11.68946,0 -31.50878,-31.5967 0,31.5967 -8.87696,0 0,-65.6104 z"
         id="path3428"
         inkscape:connector-curvature="0" />
      <path
         d="m -266.3902,1086.7518 41.48438,0 0,7.4707 -32.60742,0 0,19.4239 31.24511,0 0,7.4707 -31.24511,0 0,23.7744 33.39843,0 0,7.4707 -42.27539,0 0,-65.6104 z"
         id="path3430"
         inkscape:connector-curvature="0" />
      <path
         d="m -218.62164,1086.7518 9.53613,0 18.19336,26.9825 18.06152,-26.9825 9.53614,0 -23.20313,34.3653 0,31.2451 -8.9209,0 0,-31.2451 -23.20312,-34.3653 z"
         id="path3432"
         inkscape:connector-curvature="0" />
      <path
         d="m -164.83258,1141.2001 9.27246,0 0,11.1621 -9.27246,0 0,-11.1621 z m 0,-35.376 9.27246,0 0,11.1621 -9.27246,0 0,-11.1621 z"
         id="path3434"
         inkscape:connector-curvature="0" />
      <path
         d="m -107.48395,1086.7518 8.876955,0 0,58.1397 31.948243,0 0,7.4707 -40.825198,0 0,-65.6104 z"
         id="path3436"
         inkscape:connector-curvature="0" />
      <path
         d="m -33.919495,1092.7723 q -9.667968,0 -15.380859,7.2071 -5.668945,7.207 -5.668945,19.6435 0,12.3926 5.668945,19.5996 5.712891,7.2071 15.380859,7.2071 9.667969,0 15.292969,-7.2071 5.668945,-7.207 5.668945,-19.5996 0,-12.4365 -5.668945,-19.6435 -5.625,-7.2071 -15.292969,-7.2071 z m 0,-7.207 q 13.798828,0 22.060547,9.2725 8.261719,9.2285 8.261719,24.7851 0,15.5127 -8.261719,24.7852 -8.261719,9.2285 -22.060547,9.2285 -13.842773,0 -22.148437,-9.2285 -8.261719,-9.2285 -8.261719,-24.7852 0,-15.5566 8.261719,-24.7851 8.305664,-9.2725 22.148437,-9.2725 z"
         id="path3438"
         inkscape:connector-curvature="0" />
      <path
         d="m 36.920349,1092.7723 q -9.667969,0 -15.380859,7.2071 -5.668946,7.207 -5.668946,19.6435 0,12.3926 5.668946,19.5996 5.71289,7.2071 15.380859,7.2071 9.667969,0 15.292969,-7.2071 5.668945,-7.207 5.668945,-19.5996 0,-12.4365 -5.668945,-19.6435 -5.625,-7.2071 -15.292969,-7.2071 z m 0,-7.207 q 13.798828,0 22.060547,9.2725 8.261719,9.2285 8.261719,24.7851 0,15.5127 -8.261719,24.7852 -8.261719,9.2285 -22.060547,9.2285 -13.842773,0 -22.148437,-9.2285 -8.2617191,-9.2285 -8.2617191,-24.7852 0,-15.5566 8.2617191,-24.7851 8.305664,-9.2725 22.148437,-9.2725 z"
         id="path3440"
         inkscape:connector-curvature="0" />
      <path
         d="m 81.129333,1086.7518 8.876954,0 0,27.7295 29.443363,-27.7295 11.42578,0 -32.563479,30.586 34.892579,35.0244 -11.68945,0 -31.508793,-31.5967 0,31.5967 -8.876954,0 0,-65.6104 z"
         id="path3442"
         inkscape:connector-curvature="0" />
      <path
         d="m 177.72113,1121.0292 0,24.0381 14.23828,0 q 7.16309,0 10.59082,-2.9444 3.47168,-2.9883 3.47168,-9.0967 0,-6.1523 -3.47168,-9.0527 -3.42773,-2.9443 -10.59082,-2.9443 l -14.23828,0 z m 0,-26.9824 0,19.7753 13.13965,0 q 6.50391,0 9.66797,-2.4169 3.20801,-2.461 3.20801,-7.4708 0,-4.9658 -3.20801,-7.4267 -3.16406,-2.4609 -9.66797,-2.4609 l -13.13965,0 z m -8.87695,-7.295 22.67578,0 q 10.15137,0 15.64453,4.2188 5.49316,4.2187 5.49316,11.9971 0,6.0205 -2.8125,9.58 -2.8125,3.5596 -8.26171,4.4385 6.54785,1.4063 10.15136,5.8887 3.64746,4.4385 3.64746,11.1181 0,8.7891 -5.97656,13.5791 -5.97656,4.7901 -17.00684,4.7901 l -23.55468,0 0,-65.6104 z"
         id="path3444"
         inkscape:connector-curvature="0" />
      <path
         d="m 230.5434,1086.7518 41.48437,0 0,7.4707 -32.60742,0 0,19.4239 31.24512,0 0,7.4707 -31.24512,0 0,23.7744 33.39844,0 0,7.4707 -42.27539,0 0,-65.6104 z"
         id="path3446"
         inkscape:connector-curvature="0" />
      <path
         d="m 278.31195,1086.7518 9.53613,0 18.19336,26.9825 18.06153,-26.9825 9.53613,0 -23.20313,34.3653 0,31.2451 -8.92089,0 0,-31.2451 -23.20313,-34.3653 z"
         id="path3448"
         inkscape:connector-curvature="0" />
      <path
         d="m 364.04926,1092.7723 q -9.66797,0 -15.38086,7.2071 -5.66895,7.207 -5.66895,19.6435 0,12.3926 5.66895,19.5996 5.71289,7.2071 15.38086,7.2071 9.66796,0 15.29296,-7.2071 5.66895,-7.207 5.66895,-19.5996 0,-12.4365 -5.66895,-19.6435 -5.625,-7.2071 -15.29296,-7.2071 z m 0,-7.207 q 13.79882,0 22.06054,9.2725 8.26172,9.2285 8.26172,24.7851 0,15.5127 -8.26172,24.7852 -8.26172,9.2285 -22.06054,9.2285 -13.84278,0 -22.14844,-9.2285 -8.26172,-9.2285 -8.26172,-24.7852 0,-15.5566 8.26172,-24.7851 8.30566,-9.2725 22.14844,-9.2725 z"
         id="path3450"
         inkscape:connector-curvature="0" />
      <path
         d="m 408.25824,1086.7518 11.95312,0 29.0918,54.8877 0,-54.8877 8.61328,0 0,65.6104 -11.95312,0 -29.0918,-54.8877 0,54.8877 -8.61328,0 0,-65.6104 z"
         id="path3452"
         inkscape:connector-curvature="0" />
      <path
         d="m 484.45941,1094.0468 0,51.0205 10.72266,0 q 13.5791,0 19.86328,-6.1524 6.32812,-6.1523 6.32812,-19.4238 0,-13.1836 -6.32812,-19.292 -6.28418,-6.1523 -19.86328,-6.1523 l -10.72266,0 z m -8.87695,-7.295 18.2373,0 q 19.07227,0 27.99317,7.9541 8.9209,7.9102 8.9209,24.7852 0,16.9629 -8.96485,24.917 -8.96484,7.9541 -27.94922,7.9541 l -18.2373,0 0,-65.6104 z"
         id="path3454"
         inkscape:connector-curvature="0" />
      <path
         d="m 564.39594,1086.7518 55.50292,0 0,7.4707 -23.29101,0 0,58.1397 -8.9209,0 0,-58.1397 -23.29101,0 0,-7.4707 z"
         id="path3456"
         inkscape:connector-curvature="0" />
      <path
         d="m 628.68793,1086.7518 8.87695,0 0,26.8946 32.25586,0 0,-26.8946 8.87695,0 0,65.6104 -8.87695,0 0,-31.2451 -32.25586,0 0,31.2451 -8.87695,0 0,-65.6104 z"
         id="path3458"
         inkscape:connector-curvature="0" />
      <path
         d="m 696.36371,1086.7518 41.48437,0 0,7.4707 -32.60742,0 0,19.4239 31.24512,0 0,7.4707 -31.24512,0 0,23.7744 33.39844,0 0,7.4707 -42.27539,0 0,-65.6104 z"
         id="path3460"
         inkscape:connector-curvature="0" />
      <path
         d="m 798.71234,1152.3622 -25.04883,-65.6104 9.27246,0 20.78614,55.2393 20.83008,-55.2393 9.22851,0 -25.00488,65.6104 -10.06348,0 z"
         id="path3462"
         inkscape:connector-curvature="0" />
      <path
         d="m 843.31683,1086.7518 8.87696,0 0,65.6104 -8.87696,0 0,-65.6104 z"
         id="path3464"
         inkscape:connector-curvature="0" />
      <path
         d="m 869.8598,1086.7518 41.48438,0 0,7.4707 -32.60742,0 0,19.4239 31.24511,0 0,7.4707 -31.24511,0 0,23.7744 33.39843,0 0,7.4707 -42.27539,0 0,-65.6104 z"
         id="path3466"
         inkscape:connector-curvature="0" />
      <path
         d="m 920.79242,1086.7518 8.96484,0 13.79883,55.459 13.75488,-55.459 9.97559,0 13.79883,55.459 13.75488,-55.459 9.00883,0 -16.47953,65.6104 -11.16211,0 -13.84277,-56.9531 -13.97461,56.9531 -11.16211,0 -16.43555,-65.6104 z"
         id="path3468"
         inkscape:connector-curvature="0" />
      <path
         d="m 1024.4594,1094.0468 0,24.6533 11.1621,0 q 6.1963,0 9.5801,-3.208 3.3838,-3.208 3.3838,-9.1407 0,-5.8886 -3.3838,-9.0966 -3.3838,-3.208 -9.5801,-3.208 l -11.1621,0 z m -8.8769,-7.295 20.039,0 q 11.0303,0 16.6553,5.0098 5.6689,4.9658 5.6689,14.5898 0,9.712 -5.6689,14.6778 -5.625,4.9658 -16.6553,4.9658 l -11.1621,0 0,26.3672 -8.8769,0 0,-65.6104 z"
         id="path3470"
         inkscape:connector-curvature="0" />
      <path
         d="m 1096.5297,1092.7723 q -9.6679,0 -15.3808,7.2071 -5.669,7.207 -5.669,19.6435 0,12.3926 5.669,19.5996 5.7129,7.2071 15.3808,7.2071 9.668,0 15.293,-7.2071 5.6689,-7.207 5.6689,-19.5996 0,-12.4365 -5.6689,-19.6435 -5.625,-7.2071 -15.293,-7.2071 z m 0,-7.207 q 13.7989,0 22.0606,9.2725 8.2617,9.2285 8.2617,24.7851 0,15.5127 -8.2617,24.7852 -8.2617,9.2285 -22.0606,9.2285 -13.8427,0 -22.1484,-9.2285 -8.2617,-9.2285 -8.2617,-24.7852 0,-15.5566 8.2617,-24.7851 8.3057,-9.2725 22.1484,-9.2725 z"
         id="path3472"
         inkscape:connector-curvature="0" />
      <path
         d="m 1171.852,1121.6005 q 2.8564,0.9668 5.5371,4.1308 2.7246,3.1641 5.4492,8.7012 l 9.0088,17.9297 -9.5361,0 -8.3936,-16.8311 q -3.2519,-6.5918 -6.3281,-8.7451 -3.0322,-2.1533 -8.3057,-2.1533 l -9.6679,0 0,27.7295 -8.877,0 0,-65.6104 20.0391,0 q 11.25,0 16.7871,4.7022 5.5371,4.7021 5.5371,14.1943 0,6.1963 -2.9004,10.2832 -2.8564,4.0869 -8.3496,5.669 z m -22.2363,-27.5537 0,23.291 11.1621,0 q 6.416,0 9.6679,-2.9444 3.2959,-2.9882 3.2959,-8.7451 0,-5.7568 -3.2959,-8.6572 -3.2519,-2.9443 -9.6679,-2.9443 l -11.1621,0 z"
         id="path3474"
         inkscape:connector-curvature="0" />
      <path
         d="m 1187.8041,1086.7518 55.503,0 0,7.4707 -23.291,0 0,58.1397 -8.9209,0 0,-58.1397 -23.2911,0 0,-7.4707 z"
         id="path3476"
         inkscape:connector-curvature="0" />
    </g>
  </g>
</svg>

